# Blender 5.1.1
# www.blender.org
mtllib muzzle_cone.mtl
o Cylinder
v -0.000000 -1.000000 0.194569
v 0.195090 -0.980785 0.194569
v 0.382683 -0.923880 0.194569
v 0.555570 -0.831470 0.194569
v 0.707107 -0.707107 0.194569
v 0.831470 -0.555570 0.194569
v 0.923880 -0.382683 0.194569
v 0.980785 -0.195090 0.194569
v 1.000000 0.000000 0.194569
v 0.980785 0.195090 0.194569
v 0.923880 0.382683 0.194569
v 0.831470 0.555570 0.194569
v 0.707107 0.707107 0.194569
v 0.555570 0.831470 0.194569
v 0.382683 0.923880 0.194569
v 0.195090 0.980785 0.194569
v -0.000000 1.000000 0.194569
v -0.195090 0.980785 0.194569
v -0.382683 0.923880 0.194569
v -0.555570 0.831470 0.194569
v -0.707107 0.707107 0.194569
v -0.831470 0.555570 0.194569
v -0.923880 0.382683 0.194569
v -0.980785 0.195090 0.194569
v -1.000000 0.000000 0.194569
v -0.980785 -0.195090 0.194569
v -0.923880 -0.382683 0.194569
v -0.831470 -0.555570 0.194569
v -0.707107 -0.707107 0.194569
v -0.555570 -0.831470 0.194569
v -0.382683 -0.923880 0.194569
v -0.195090 -0.980785 0.194569
v 0.000000 -0.500000 0.096499
v 0.097545 -0.490393 0.096499
v 0.191342 -0.461940 0.096499
v 0.277785 -0.415735 0.096499
v 0.353553 -0.353553 0.096499
v 0.415735 -0.277785 0.096499
v 0.461940 -0.191342 0.096499
v 0.490393 -0.097545 0.096499
v 0.500000 -0.000000 0.096499
v 0.490393 0.097545 0.096499
v 0.461940 0.191342 0.096499
v 0.415735 0.277785 0.096499
v 0.353553 0.353553 0.096499
v 0.277785 0.415735 0.096499
v 0.191342 0.461940 0.096499
v 0.097545 0.490393 0.096499
v 0.000000 0.500000 0.096499
v -0.097545 0.490393 0.096499
v -0.191342 0.461940 0.096499
v -0.277785 0.415735 0.096499
v -0.353553 0.353553 0.096499
v -0.415735 0.277785 0.096499
v -0.461940 0.191342 0.096499
v -0.490393 0.097545 0.096499
v -0.500000 -0.000000 0.096499
v -0.490393 -0.097545 0.096499
v -0.461940 -0.191342 0.096499
v -0.415735 -0.277785 0.096499
v -0.353553 -0.353553 0.096499
v -0.277785 -0.415735 0.096499
v -0.191342 -0.461940 0.096499
v -0.097545 -0.490393 0.096499
v 0.000000 -0.089003 0.000000
v 0.017364 -0.087292 0.000000
v 0.034060 -0.082228 0.000000
v 0.049447 -0.074003 0.000000
v 0.062934 -0.062934 0.000000
v 0.074003 -0.049447 0.000000
v 0.082228 -0.034060 0.000000
v 0.087292 -0.017364 0.000000
v 0.089003 -0.000000 0.000000
v 0.087292 0.017364 0.000000
v 0.082228 0.034060 0.000000
v 0.074003 0.049447 0.000000
v 0.062934 0.062934 0.000000
v 0.049447 0.074003 0.000000
v 0.034060 0.082228 0.000000
v 0.017364 0.087292 0.000000
v 0.000000 0.089003 0.000000
v -0.017364 0.087292 0.000000
v -0.034060 0.082228 0.000000
v -0.049447 0.074003 0.000000
v -0.062934 0.062934 0.000000
v -0.074003 0.049447 0.000000
v -0.082228 0.034060 0.000000
v -0.087292 0.017364 0.000000
v -0.089003 -0.000000 0.000000
v -0.087292 -0.017364 0.000000
v -0.082228 -0.034060 0.000000
v -0.074003 -0.049447 0.000000
v -0.062934 -0.062934 0.000000
v -0.049447 -0.074003 0.000000
v -0.034060 -0.082228 0.000000
v -0.017364 -0.087292 0.000000
vn -0.0000 -0.1925 -0.9813
vn 0.0375 -0.1888 -0.9813
vn 0.0737 -0.1778 -0.9813
vn 0.1069 -0.1600 -0.9813
vn 0.1361 -0.1361 -0.9813
vn 0.1600 -0.1069 -0.9813
vn 0.1778 -0.0737 -0.9813
vn 0.1888 -0.0375 -0.9813
vn 0.1925 -0.0000 -0.9813
vn 0.1888 0.0375 -0.9813
vn 0.1778 0.0737 -0.9813
vn 0.1600 0.1069 -0.9813
vn 0.1361 0.1361 -0.9813
vn 0.1069 0.1600 -0.9813
vn 0.0737 0.1778 -0.9813
vn 0.0375 0.1888 -0.9813
vn -0.0000 0.1925 -0.9813
vn -0.0375 0.1888 -0.9813
vn -0.0737 0.1778 -0.9813
vn -0.1069 0.1600 -0.9813
vn -0.1361 0.1361 -0.9813
vn -0.1600 0.1069 -0.9813
vn -0.1778 0.0737 -0.9813
vn -0.1888 0.0375 -0.9813
vn -0.1925 -0.0000 -0.9813
vn -0.1888 -0.0375 -0.9813
vn -0.1778 -0.0737 -0.9813
vn -0.1600 -0.1069 -0.9813
vn -0.1361 -0.1361 -0.9813
vn -0.1069 -0.1600 -0.9813
vn -0.0737 -0.1778 -0.9813
vn -0.0375 -0.1888 -0.9813
vn -0.0000 -0.2095 -0.9778
vn 0.0409 -0.2054 -0.9778
vn 0.0802 -0.1935 -0.9778
vn 0.1164 -0.1742 -0.9778
vn 0.1481 -0.1481 -0.9778
vn 0.1742 -0.1164 -0.9778
vn 0.1935 -0.0802 -0.9778
vn 0.2054 -0.0409 -0.9778
vn 0.2095 -0.0000 -0.9778
vn 0.2054 0.0409 -0.9778
vn 0.1935 0.0802 -0.9778
vn 0.1742 0.1164 -0.9778
vn 0.1481 0.1481 -0.9778
vn 0.1164 0.1742 -0.9778
vn 0.0802 0.1935 -0.9778
vn 0.0409 0.2054 -0.9778
vn -0.0000 0.2095 -0.9778
vn -0.0409 0.2054 -0.9778
vn -0.0802 0.1935 -0.9778
vn -0.1164 0.1742 -0.9778
vn -0.1481 0.1481 -0.9778
vn -0.1742 0.1164 -0.9778
vn -0.1935 0.0802 -0.9778
vn -0.2054 0.0409 -0.9778
vn -0.2095 -0.0000 -0.9778
vn -0.2054 -0.0409 -0.9778
vn -0.1935 -0.0802 -0.9778
vn -0.1742 -0.1164 -0.9778
vn -0.1481 -0.1481 -0.9778
vn -0.1164 -0.1742 -0.9778
vn -0.0802 -0.1935 -0.9778
vn -0.0409 -0.2054 -0.9778
vn -0.0000 -0.2286 -0.9735
vn 0.0446 -0.2242 -0.9735
vn 0.0875 -0.2112 -0.9735
vn 0.1270 -0.1901 -0.9735
vn 0.1616 -0.1616 -0.9735
vn 0.1901 -0.1270 -0.9735
vn 0.2112 -0.0875 -0.9735
vn 0.2242 -0.0446 -0.9735
vn 0.2286 -0.0000 -0.9735
vn 0.2242 0.0446 -0.9735
vn 0.2112 0.0875 -0.9735
vn 0.1901 0.1270 -0.9735
vn 0.1616 0.1616 -0.9735
vn 0.1270 0.1901 -0.9735
vn 0.0875 0.2112 -0.9735
vn 0.0446 0.2242 -0.9735
vn -0.0000 0.2286 -0.9735
vn -0.0446 0.2242 -0.9735
vn -0.0875 0.2112 -0.9735
vn -0.1270 0.1901 -0.9735
vn -0.1616 0.1616 -0.9735
vn -0.1901 0.1270 -0.9735
vn -0.2112 0.0875 -0.9735
vn -0.2242 0.0446 -0.9735
vn -0.2286 -0.0000 -0.9735
vn -0.2242 -0.0446 -0.9735
vn -0.2112 -0.0875 -0.9735
vn -0.1901 -0.1270 -0.9735
vn -0.1616 -0.1616 -0.9735
vn -0.1270 -0.1901 -0.9735
vn -0.0875 -0.2112 -0.9735
vn -0.0446 -0.2242 -0.9735
vt 0.038060 0.308658
vt 0.269030 0.404329
vt 0.254804 0.451227
vt 0.009607 0.402455
vt 0.250000 0.500000
vt 0.000000 0.500000
vt 0.084265 0.222215
vt 0.292133 0.361107
vt 0.146447 0.146447
vt 0.323223 0.323223
vt 0.222215 0.084265
vt 0.361107 0.292133
vt 0.308658 0.038060
vt 0.404329 0.269030
vt 0.402455 0.009607
vt 0.451227 0.254804
vt 0.500000 0.000000
vt 0.500000 0.250000
vt 0.597545 0.009607
vt 0.548773 0.254804
vt 0.691342 0.038060
vt 0.595671 0.269030
vt 0.777785 0.084265
vt 0.638893 0.292133
vt 0.853553 0.146447
vt 0.676777 0.323223
vt 0.915735 0.222215
vt 0.707868 0.361107
vt 0.961940 0.308658
vt 0.730970 0.404329
vt 0.990393 0.402455
vt 0.745196 0.451227
vt 1.000000 0.500000
vt 0.750000 0.500000
vt 0.990393 0.597545
vt 0.745196 0.548773
vt 0.961940 0.691342
vt 0.730970 0.595671
vt 0.915735 0.777785
vt 0.707868 0.638893
vt 0.853553 0.853553
vt 0.676777 0.676777
vt 0.777785 0.915735
vt 0.638893 0.707867
vt 0.691342 0.961940
vt 0.595671 0.730970
vt 0.597545 0.990393
vt 0.548773 0.745196
vt 0.500000 1.000000
vt 0.500000 0.750000
vt 0.402455 0.990393
vt 0.451227 0.745196
vt 0.308658 0.961940
vt 0.404329 0.730970
vt 0.222215 0.915735
vt 0.361107 0.707867
vt 0.146447 0.853553
vt 0.323223 0.676777
vt 0.084265 0.777785
vt 0.292133 0.638893
vt 0.038060 0.691342
vt 0.269030 0.595671
vt 0.009607 0.597545
vt 0.254804 0.548773
vt 0.456354 0.491318
vt 0.455499 0.500000
vt 0.458886 0.482970
vt 0.462999 0.475276
vt 0.468533 0.468533
vt 0.475276 0.462999
vt 0.482970 0.458886
vt 0.491318 0.456354
vt 0.500000 0.455499
vt 0.508682 0.456354
vt 0.517030 0.458886
vt 0.524724 0.462999
vt 0.531467 0.468533
vt 0.537001 0.475276
vt 0.541114 0.482970
vt 0.543646 0.491318
vt 0.544501 0.500000
vt 0.543646 0.508682
vt 0.541114 0.517030
vt 0.537001 0.524724
vt 0.531467 0.531467
vt 0.524724 0.537001
vt 0.517030 0.541114
vt 0.508682 0.543646
vt 0.500000 0.544501
vt 0.491318 0.543646
vt 0.482970 0.541114
vt 0.475276 0.537001
vt 0.468533 0.531467
vt 0.462999 0.524724
vt 0.458886 0.517030
vt 0.456354 0.508682
s 1
f 31/1/31 63/2/63 64/3/64 32/4/32
f 32/4/32 64/3/64 33/5/33 1/6/1
f 30/7/30 62/8/62 63/2/63 31/1/31
f 29/9/29 61/10/61 62/8/62 30/7/30
f 28/11/28 60/12/60 61/10/61 29/9/29
f 27/13/27 59/14/59 60/12/60 28/11/28
f 26/15/26 58/16/58 59/14/59 27/13/27
f 25/17/25 57/18/57 58/16/58 26/15/26
f 24/19/24 56/20/56 57/18/57 25/17/25
f 23/21/23 55/22/55 56/20/56 24/19/24
f 22/23/22 54/24/54 55/22/55 23/21/23
f 21/25/21 53/26/53 54/24/54 22/23/22
f 20/27/20 52/28/52 53/26/53 21/25/21
f 19/29/19 51/30/51 52/28/52 20/27/20
f 18/31/18 50/32/50 51/30/51 19/29/19
f 17/33/17 49/34/49 50/32/50 18/31/18
f 16/35/16 48/36/48 49/34/49 17/33/17
f 15/37/15 47/38/47 48/36/48 16/35/16
f 14/39/14 46/40/46 47/38/47 15/37/15
f 13/41/13 45/42/45 46/40/46 14/39/14
f 12/43/12 44/44/44 45/42/45 13/41/13
f 11/45/11 43/46/43 44/44/44 12/43/12
f 10/47/10 42/48/42 43/46/43 11/45/11
f 9/49/9 41/50/41 42/48/42 10/47/10
f 8/51/8 40/52/40 41/50/41 9/49/9
f 7/53/7 39/54/39 40/52/40 8/51/8
f 6/55/6 38/56/38 39/54/39 7/53/7
f 5/57/5 37/58/37 38/56/38 6/55/6
f 4/59/4 36/60/36 37/58/37 5/57/5
f 3/61/3 35/62/35 36/60/36 4/59/4
f 2/63/2 34/64/34 35/62/35 3/61/3
f 1/6/1 33/5/33 34/64/34 2/63/2
f 64/3/64 96/65/96 65/66/65 33/5/33
f 63/2/63 95/67/95 96/65/96 64/3/64
f 62/8/62 94/68/94 95/67/95 63/2/63
f 61/10/61 93/69/93 94/68/94 62/8/62
f 60/12/60 92/70/92 93/69/93 61/10/61
f 59/14/59 91/71/91 92/70/92 60/12/60
f 58/16/58 90/72/90 91/71/91 59/14/59
f 57/18/57 89/73/89 90/72/90 58/16/58
f 56/20/56 88/74/88 89/73/89 57/18/57
f 55/22/55 87/75/87 88/74/88 56/20/56
f 54/24/54 86/76/86 87/75/87 55/22/55
f 53/26/53 85/77/85 86/76/86 54/24/54
f 52/28/52 84/78/84 85/77/85 53/26/53
f 51/30/51 83/79/83 84/78/84 52/28/52
f 50/32/50 82/80/82 83/79/83 51/30/51
f 49/34/49 81/81/81 82/80/82 50/32/50
f 48/36/48 80/82/80 81/81/81 49/34/49
f 47/38/47 79/83/79 80/82/80 48/36/48
f 46/40/46 78/84/78 79/83/79 47/38/47
f 45/42/45 77/85/77 78/84/78 46/40/46
f 44/44/44 76/86/76 77/85/77 45/42/45
f 43/46/43 75/87/75 76/86/76 44/44/44
f 42/48/42 74/88/74 75/87/75 43/46/43
f 41/50/41 73/89/73 74/88/74 42/48/42
f 40/52/40 72/90/72 73/89/73 41/50/41
f 39/54/39 71/91/71 72/90/72 40/52/40
f 38/56/38 70/92/70 71/91/71 39/54/39
f 37/58/37 69/93/69 70/92/70 38/56/38
f 36/60/36 68/94/68 69/93/69 37/58/37
f 35/62/35 67/95/67 68/94/68 36/60/36
f 34/64/34 66/96/66 67/95/67 35/62/35
f 33/5/33 65/66/65 66/96/66 34/64/34
